<svg viewBox="0 0 270 50" fill="none" xmlns="http://www.w3.org/2000/svg">
<mask id="mask0" mask-type="alpha" maskUnits="userSpaceOnUse" x="0" y="0" width="270" height="50">
<rect width="270" height="50" fill="currentColor"/>
</mask>
<g mask="url(#mask0)">
<path opacity="0.25" d="M85.8552 27.1509C92.7885 27.1509 98.409 21.5304 98.409 14.5971C98.409 7.66377 92.7885 2.04321 85.8552 2.04321C78.9219 2.04321 73.3013 7.66377 73.3013 14.5971C73.3013 21.5304 78.9219 27.1509 85.8552 27.1509Z" fill="#4A4C4E"/>
<path opacity="0.25" d="M53.2163 57.2803C61.9325 57.2803 68.9983 50.2145 68.9983 41.4983C68.9983 32.7821 61.9325 25.7163 53.2163 25.7163C44.5002 25.7163 37.4343 32.7821 37.4343 41.4983C37.4343 50.2145 44.5002 57.2803 53.2163 57.2803Z" fill="#4A4C4E"/>
<path opacity="0.25" d="M138.223 36.4765C145.553 36.4765 151.494 30.5348 151.494 23.2053C151.494 15.8758 145.553 9.93408 138.223 9.93408C130.894 9.93408 124.952 15.8758 124.952 23.2053C124.952 30.5348 130.894 36.4765 138.223 36.4765Z" fill="#4A4C4E"/>
<path opacity="0.25" d="M147.549 36.4766C151.312 36.4766 154.363 33.4254 154.363 29.6616C154.363 25.8978 151.312 22.8467 147.549 22.8467C143.785 22.8467 140.734 25.8978 140.734 29.6616C140.734 33.4254 143.785 36.4766 147.549 36.4766Z" fill="#4A4C4E"/>
<path opacity="0.25" d="M251.925 45.0848C253.906 45.0848 255.512 43.4789 255.512 41.4979C255.512 39.517 253.906 37.9111 251.925 37.9111C249.944 37.9111 248.338 39.517 248.338 41.4979C248.338 43.4789 249.944 45.0848 251.925 45.0848Z" fill="#4A4C4E"/>
<path opacity="0.25" d="M112.756 5.62993C114.737 5.62993 116.343 4.02406 116.343 2.04312C116.343 0.0621711 114.737 -1.5437 112.756 -1.5437C110.775 -1.5437 109.169 0.0621711 109.169 2.04312C109.169 4.02406 110.775 5.62993 112.756 5.62993Z" fill="#4A4C4E"/>
<path opacity="0.25" d="M14.1193 41.4981C19.864 41.4981 24.5211 36.8411 24.5211 31.0963C24.5211 25.3516 19.864 20.6946 14.1193 20.6946C8.37456 20.6946 3.71753 25.3516 3.71753 31.0963C3.71753 36.8411 8.37456 41.4981 14.1193 41.4981Z" fill="#4A4C4E"/>
<path opacity="0.25" d="M8.02154 27.1508C10.7949 27.1508 13.0431 24.9025 13.0431 22.1292C13.0431 19.3559 10.7949 17.1077 8.02154 17.1077C5.24822 17.1077 3 19.3559 3 22.1292C3 24.9025 5.24822 27.1508 8.02154 27.1508Z" fill="#4A4C4E"/>
<path opacity="0.25" d="M182.699 55.8452C190.028 55.8452 195.97 49.9034 195.97 42.574C195.97 35.2445 190.028 29.3027 182.699 29.3027C175.369 29.3027 169.428 35.2445 169.428 42.574C169.428 49.9034 175.369 55.8452 182.699 55.8452Z" fill="#4A4C4E"/>
<path opacity="0.25" d="M203.504 28.5855C213.607 28.5855 221.797 20.3956 221.797 10.2928C221.797 0.189949 213.607 -8 203.504 -8C193.401 -8 185.211 0.189949 185.211 10.2928C185.211 20.3956 193.401 28.5855 203.504 28.5855Z" fill="#4A4C4E"/>
<path opacity="0.25" d="M242.958 34.3244C250.288 34.3244 256.23 28.3827 256.23 21.0532C256.23 13.7237 250.288 7.78198 242.958 7.78198C235.629 7.78198 229.687 13.7237 229.687 21.0532C229.687 28.3827 235.629 34.3244 242.958 34.3244Z" fill="#4A4C4E"/>
<path fill-rule="evenodd" clip-rule="evenodd" d="M31 4C27.73 4 25 5.95003 25 8.5L25.0042 8.67208C25.0661 9.92854 25.8028 11.0611 26.9868 11.8556L27.0558 11.9005L26.7962 14.5H35.2035L34.9435 11.8997L35.0139 11.8551C36.2513 11.0245 37 9.82463 37 8.5C37 5.95003 34.27 4 31 4ZM31 5.5C33.529 5.5 35.5 6.90784 35.5 8.5C35.5 9.3919 34.8819 10.2563 33.796 10.8391L33.3546 11.076L33.5455 13H28.4538L28.6463 11.0764L28.2047 10.8394C27.1184 10.2566 26.5 9.39208 26.5 8.5C26.5 6.90784 28.471 5.5 31 5.5ZM34 8.875C34 9.49632 33.4963 10 32.875 10C32.2537 10 31.75 9.49632 31.75 8.875C31.75 8.25368 32.2537 7.75 32.875 7.75C33.4963 7.75 34 8.25368 34 8.875ZM29.125 10C29.7463 10 30.25 9.49632 30.25 8.875C30.25 8.25368 29.7463 7.75 29.125 7.75C28.5037 7.75 28 8.25368 28 8.875C28 9.49632 28.5037 10 29.125 10ZM37.6871 15.6994C37.5329 15.347 37.1406 15.1726 36.7815 15.2824L36.6993 15.3129L30.9998 17.8066L25.3006 15.3129L25.2184 15.2824C24.8593 15.1726 24.467 15.347 24.3128 15.6994C24.1468 16.0789 24.3198 16.5211 24.6993 16.6871L29.1285 18.6248L24.6993 20.5629L24.6212 20.6026C24.2969 20.7918 24.1587 21.1982 24.3128 21.5506C24.467 21.903 24.8593 22.0774 25.2184 21.9676L25.3006 21.9371L30.9998 19.4431L36.6993 21.9371L36.7815 21.9676C37.1406 22.0774 37.5329 21.903 37.6871 21.5506C37.8531 21.1711 37.68 20.7289 37.3006 20.5629L32.871 18.6248L37.3006 16.6871L37.3787 16.6474C37.703 16.4582 37.8412 16.0518 37.6871 15.6994Z" fill="#F30136"/>
<path fill-rule="evenodd" clip-rule="evenodd" d="M75 10C72.82 10 71 11.3 71 13L71.0028 13.1147C71.044 13.9524 71.5352 14.7074 72.3246 15.2371L72.3705 15.267L72.1975 17H77.8024L77.629 15.2665L77.6759 15.2368C78.5009 14.683 79 13.8831 79 13C79 11.3 77.18 10 75 10ZM75 11C76.686 11 78 11.9386 78 13C78 13.5946 77.5879 14.1709 76.864 14.5594L76.5698 14.7173L76.697 16H73.3025L73.4309 14.7176L73.1365 14.5596C72.4122 14.1711 72 13.5947 72 13C72 11.9386 73.314 11 75 11ZM77 13.25C77 13.6642 76.6642 14 76.25 14C75.8358 14 75.5 13.6642 75.5 13.25C75.5 12.8358 75.8358 12.5 76.25 12.5C76.6642 12.5 77 12.8358 77 13.25ZM73.75 14C74.1642 14 74.5 13.6642 74.5 13.25C74.5 12.8358 74.1642 12.5 73.75 12.5C73.3358 12.5 73 12.8358 73 13.25C73 13.6642 73.3358 14 73.75 14ZM79.458 17.7996C79.3552 17.5647 79.0936 17.4484 78.8542 17.5216L78.7995 17.5419L74.9998 19.2044L71.2003 17.5419L71.1455 17.5216C70.9061 17.4484 70.6446 17.5647 70.5418 17.7996C70.4311 18.0526 70.5465 18.3474 70.7995 18.4581L73.7523 19.7499L70.7995 21.0419L70.7474 21.0684C70.5312 21.1945 70.439 21.4655 70.5418 21.7004C70.6446 21.9353 70.9061 22.0516 71.1455 21.9784L71.2003 21.9581L74.9998 20.2954L78.7995 21.9581L78.8542 21.9784C79.0936 22.0516 79.3552 21.9353 79.458 21.7004C79.5686 21.4474 79.4533 21.1526 79.2003 21.0419L76.2473 19.7499L79.2003 18.4581L79.2524 18.4316C79.4686 18.3055 79.5607 18.0345 79.458 17.7996Z" fill="#F30136"/>
<path fill-rule="evenodd" clip-rule="evenodd" d="M110 27C107.457 27 105.333 28.5167 105.333 30.5L105.337 30.6338C105.385 31.6111 105.958 32.4919 106.879 33.1099L106.932 33.1448L106.73 35.1667H113.269L113.067 33.1442L113.122 33.1096C114.084 32.4635 114.667 31.5303 114.667 30.5C114.667 28.5167 112.543 27 110 27ZM110 28.1667C111.967 28.1667 113.5 29.2617 113.5 30.5C113.5 31.1937 113.019 31.866 112.175 32.3193L111.831 32.5035L111.98 34H108.02L108.169 32.5038L107.826 32.3196C106.981 31.8663 106.5 31.1938 106.5 30.5C106.5 29.2617 108.033 28.1667 110 28.1667ZM112.333 30.7917C112.333 31.2749 111.942 31.6667 111.458 31.6667C110.975 31.6667 110.583 31.2749 110.583 30.7917C110.583 30.3084 110.975 29.9167 111.458 29.9167C111.942 29.9167 112.333 30.3084 112.333 30.7917ZM108.542 31.6667C109.025 31.6667 109.417 31.2749 109.417 30.7917C109.417 30.3084 109.025 29.9167 108.542 29.9167C108.058 29.9167 107.667 30.3084 107.667 30.7917C107.667 31.2749 108.058 31.6667 108.542 31.6667ZM115.201 36.0995C115.081 35.8254 114.776 35.6898 114.497 35.7752L114.433 35.7989L110 37.7384L105.567 35.7989L105.503 35.7752C105.224 35.6898 104.919 35.8254 104.799 36.0995C104.67 36.3947 104.804 36.7386 105.099 36.8678L108.544 38.3748L105.099 39.8822L105.039 39.9131C104.786 40.0603 104.679 40.3764 104.799 40.6505C104.919 40.9245 105.224 41.0602 105.503 40.9748L105.567 40.9511L110 39.0113L114.433 40.9511L114.497 40.9748C114.776 41.0602 115.081 40.9245 115.201 40.6505C115.33 40.3553 115.196 40.0114 114.9 39.8822L111.455 38.3748L114.9 36.8678L114.961 36.8369C115.213 36.6897 115.321 36.3736 115.201 36.0995Z" fill="#F30136"/>
<path fill-rule="evenodd" clip-rule="evenodd" d="M166 1C161.64 1 158 3.60004 158 7L158.006 7.22944C158.088 8.90472 159.07 10.4147 160.649 11.4741L160.741 11.534L160.395 15H171.605L171.258 11.533L171.352 11.4735C173.002 10.366 174 8.76617 174 7C174 3.60004 170.36 1 166 1ZM166 3C169.372 3 172 4.87711 172 7C172 8.1892 171.176 9.34172 169.728 10.1188L169.139 10.4346L169.394 13H162.605L162.862 10.4352L162.273 10.1193C160.824 9.34219 160 8.18944 160 7C160 4.87711 162.628 3 166 3ZM170 7.5C170 8.32843 169.328 9 168.5 9C167.672 9 167 8.32843 167 7.5C167 6.67157 167.672 6 168.5 6C169.328 6 170 6.67157 170 7.5ZM163.5 9C164.328 9 165 8.32843 165 7.5C165 6.67157 164.328 6 163.5 6C162.672 6 162 6.67157 162 7.5C162 8.32843 162.672 9 163.5 9ZM174.916 16.5992C174.711 16.1293 174.188 15.8968 173.709 16.0433L173.599 16.0838L166 19.4087L158.401 16.0838L158.291 16.0433C157.812 15.8968 157.289 16.1293 157.084 16.5992C156.862 17.1052 157.093 17.6948 157.599 17.9162L163.505 20.4997L157.599 23.0838L157.495 23.1367C157.063 23.389 156.878 23.931 157.084 24.4008C157.289 24.8707 157.812 25.1032 158.291 24.9567L158.401 24.9162L166 21.5907L173.599 24.9162L173.709 24.9567C174.188 25.1032 174.711 24.8707 174.916 24.4008C175.138 23.8948 174.907 23.3052 174.401 23.0838L168.495 20.4997L174.401 17.9162L174.505 17.8632C174.937 17.611 175.122 17.069 174.916 16.5992Z" fill="#F30136"/>
<path fill-rule="evenodd" clip-rule="evenodd" d="M256.5 14C253.775 14 251.5 15.625 251.5 17.75L251.504 17.8934C251.555 18.9404 252.169 19.8842 253.156 20.5463L253.213 20.5838L252.997 22.75H260.003L259.786 20.5831L259.845 20.5459C260.876 19.8537 261.5 18.8539 261.5 17.75C261.5 15.625 259.225 14 256.5 14ZM256.5 15.25C258.608 15.25 260.25 16.4232 260.25 17.75C260.25 18.4932 259.735 19.2136 258.83 19.6993L258.462 19.8966L258.621 21.5H254.378L254.539 19.897L254.171 19.6995C253.265 19.2139 252.75 18.4934 252.75 17.75C252.75 16.4232 254.392 15.25 256.5 15.25ZM259 18.0625C259 18.5803 258.58 19 258.063 19C257.545 19 257.125 18.5803 257.125 18.0625C257.125 17.5447 257.545 17.125 258.063 17.125C258.58 17.125 259 17.5447 259 18.0625ZM254.938 19C255.455 19 255.875 18.5803 255.875 18.0625C255.875 17.5447 255.455 17.125 254.938 17.125C254.42 17.125 254 17.5447 254 18.0625C254 18.5803 254.42 19 254.938 19ZM262.073 23.7495C261.944 23.4558 261.617 23.3105 261.318 23.402L261.249 23.4274L256.5 25.5055L251.75 23.4274L251.682 23.402C251.383 23.3105 251.056 23.4558 250.927 23.7495C250.789 24.0657 250.933 24.4342 251.249 24.5726L254.94 26.1873L251.249 27.8024L251.184 27.8355C250.914 27.9931 250.799 28.3319 250.927 28.6255C251.056 28.9192 251.383 29.0645 251.682 28.973L251.75 28.9476L256.5 26.8692L261.249 28.9476L261.318 28.973C261.617 29.0645 261.944 28.9192 262.073 28.6255C262.211 28.3093 262.067 27.9408 261.75 27.8024L258.059 26.1873L261.75 24.5726L261.816 24.5395C262.086 24.3819 262.201 24.0431 262.073 23.7495Z" fill="#F30136"/>
</g>
</svg>
