<?xml version="1.0" encoding="UTF-8" standalone="no"?>
<!DOCTYPE svg PUBLIC "-//W3C//DTD SVG 1.1//EN" "http://www.w3.org/Graphics/SVG/1.1/DTD/svg11.dtd">
<svg version="1.1" xmlns="http://www.w3.org/2000/svg" xmlns:xlink="http://www.w3.org/1999/xlink" preserveAspectRatio="xMidYMid meet" viewBox="0 0 64 64" width="64" height="64"><defs><path d="M38.9 41.25L42.05 22.86L22.38 22.86L25.85 41.25L38.9 41.25Z" id="b1xmwNg9Wi"></path><path d="M42.05 22.86L38.9 41.25L25.9 41.25C16.69 52.18 11.57 58.26 10.55 59.47C11.04 59.89 11.66 60.12 12.3 60.13C16.37 60.13 48.97 60.13 53.04 60.13C54.03 60.14 54.88 59.43 55.04 58.45C55.43 56.08 57.35 44.21 60.82 22.86L42.05 22.86Z" id="cWUllhgAg"></path><linearGradient id="gradientizI0CDL6T" gradientUnits="userSpaceOnUse" x1="63.31" y1="31.03" x2="33.96" y2="50.9"><stop style="stop-color: #ffffff;stop-opacity: 0.4" offset="7.000000000000001%"></stop><stop style="stop-color: #ffffff;stop-opacity: 1" offset="100%"></stop></linearGradient><path d="M1.49 4.69C1.1 5.14 0.94 5.74 1.03 6.32C1.88 11.47 8.67 52.71 9.52 57.86C9.62 58.49 9.95 59.06 10.43 59.47C10.43 59.47 10.43 59.47 10.43 59.47C10.92 59.89 11.54 60.12 12.18 60.13C13.23 58.87 18.48 52.58 27.94 41.25L25.73 41.25L22.26 22.86L60.7 22.86C62.32 12.94 63.22 7.43 63.4 6.33C63.49 5.75 63.33 5.15 62.94 4.7C62.55 4.26 61.99 4 61.4 4.01C57.51 4.01 38.05 4.01 3.03 4C2.26 4.16 1.75 4.4 1.49 4.69Z" id="a1tNg49ctc"></path></defs><g><g><g><use xlink:href="#b1xmwNg9Wi" opacity="1" fill="#000000" fill-opacity="0"></use><g><use xlink:href="#b1xmwNg9Wi" opacity="1" fill-opacity="0" stroke="#000000" stroke-width="1" stroke-opacity="0"></use></g></g><g><use xlink:href="#cWUllhgAg" opacity="1" fill="url(#gradientizI0CDL6T)"></use><g><use xlink:href="#cWUllhgAg" opacity="1" fill-opacity="0" stroke="#000000" stroke-width="1" stroke-opacity="0"></use></g></g><g><use xlink:href="#a1tNg49ctc" opacity="1" fill="#ffffff" fill-opacity="1"></use><g><use xlink:href="#a1tNg49ctc" opacity="1" fill-opacity="0" stroke="#000000" stroke-width="1" stroke-opacity="0"></use></g></g></g></g></svg>