<svg width="26" height="24" viewBox="0 0 26 24" fill="none" xmlns="http://www.w3.org/2000/svg">
<g filter="url(#filter0_search)">
<path fill-rule="evenodd" clip-rule="evenodd" d="M19.1624 16.9801C22.711 13.3475 22.9938 7.54456 19.6607 3.57236C16.1107 -0.65839 9.8031 -1.21023 5.57236 2.33979C1.34161 5.88981 0.789771 12.1974 4.33979 16.4281C7.67287 20.4003 13.4368 21.1295 17.6303 18.2656L21.3951 22.7523C21.7501 23.1754 22.3809 23.2306 22.8039 22.8756C23.227 22.5206 23.2822 21.8898 22.9272 21.4668L19.1624 16.9801ZM18.1286 4.85793C20.9686 8.24253 20.5271 13.2886 17.1425 16.1286C13.7579 18.9686 8.71189 18.5271 5.87188 15.1425C3.03186 11.7579 3.47333 6.71189 6.85793 3.87188C10.2425 1.03186 15.2886 1.47333 18.1286 4.85793Z" fill="currentColor"/>
</g>
<defs>
<filter id="filter0_search" x="0" y="-2" width="25.1612" height="27.1096" filterUnits="userSpaceOnUse" color-interpolation-filters="sRGB">
<feFlood flood-opacity="0" result="BackgroundImageFix"/>
<feColorMatrix in="SourceAlpha" type="matrix" values="0 0 0 0 0 0 0 0 0 0 0 0 0 0 0 0 0 0 127 0"/>
<feOffset/>
<feGaussianBlur stdDeviation="1"/>
<feColorMatrix type="matrix" values="0 0 0 0 0 0 0 0 0 0 0 0 0 0 0 0 0 0 0.1 0"/>
<feBlend mode="normal" in2="BackgroundImageFix" result="effect1_dropShadow"/>
<feBlend mode="normal" in="SourceGraphic" in2="effect1_dropShadow" result="shape"/>
</filter>
</defs>
</svg>
