<svg width="16" height="21" viewBox="0 0 16 21" fill="none" xmlns="http://www.w3.org/2000/svg">
<path d="M15 13V4C15 3.17156 14.3281 2.5 13.5 2.5H4C2.34312 2.5 1 3.84312 1 5.5V15.5C1 17.1569 2.34312 18.5 4 18.5H14C14.5522 18.5 15 18.0522 15 17.5281C15 17.1619 14.7935 16.8556 14.5 16.6812V14.1388C14.8063 13.8375 15 13.4437 15 13ZM5.47188 6.5H11.4719C11.775 6.5 12 6.725 12 7C12 7.275 11.775 7.5 11.5 7.5H5.47188C5.225 7.5 5 7.275 5 7C5 6.725 5.225 6.5 5.47188 6.5ZM5.47188 8.5H11.4719C11.775 8.5 12 8.725 12 9C12 9.275 11.775 9.5 11.5 9.5H5.47188C5.225 9.5 5 9.275 5 9C5 8.725 5.225 8.5 5.47188 8.5ZM13 16.5H4C3.44781 16.5 3 16.0522 3 15.5C3 14.9478 3.44781 14.5 4 14.5H13V16.5Z" fill="currentColor"/>
</svg>
